<?xml version="1.0" encoding="UTF-8" standalone="no"?>
<!-- Created with Inkscape (http://www.inkscape.org/) -->

<svg
   xmlns:dc="http://purl.org/dc/elements/1.1/"
   xmlns:cc="http://creativecommons.org/ns#"
   xmlns:rdf="http://www.w3.org/1999/02/22-rdf-syntax-ns#"
   xmlns:svg="http://www.w3.org/2000/svg"
   xmlns="http://www.w3.org/2000/svg"
   xmlns:xlink="http://www.w3.org/1999/xlink"
   xmlns:sodipodi="http://sodipodi.sourceforge.net/DTD/sodipodi-0.dtd"
   xmlns:inkscape="http://www.inkscape.org/namespaces/inkscape"
   id="svg2"
   version="1.1"
   inkscape:version="0.47 r22583"
   width="720"
   height="450"
   sodipodi:docname="DD logo.png"
   style="display:inline">
  <metadata
     id="metadata8">
    <rdf:RDF>
      <cc:Work
         rdf:about="">
        <dc:format>image/svg+xml</dc:format>
        <dc:type
           rdf:resource="http://purl.org/dc/dcmitype/StillImage" />
        <dc:title></dc:title>
      </cc:Work>
    </rdf:RDF>
  </metadata>
  <defs
     id="defs6">
    <inkscape:path-effect
       effect="spiro"
       id="path-effect2824"
       is_visible="true" />
    <inkscape:perspective
       sodipodi:type="inkscape:persp3d"
       inkscape:vp_x="0 : 0.5 : 1"
       inkscape:vp_y="0 : 1000 : 0"
       inkscape:vp_z="1 : 0.5 : 1"
       inkscape:persp3d-origin="0.5 : 0.33333333 : 1"
       id="perspective10" />
  </defs>
  <sodipodi:namedview
     pagecolor="#ffffff"
     bordercolor="#666666"
     borderopacity="1"
     objecttolerance="10"
     gridtolerance="10"
     guidetolerance="10"
     inkscape:pageopacity="0"
     inkscape:pageshadow="2"
     inkscape:window-width="1024"
     inkscape:window-height="712"
     id="namedview4"
     showgrid="false"
     inkscape:snap-smooth-nodes="true"
     inkscape:object-paths="true"
     inkscape:snap-nodes="true"
     inkscape:zoom="1.8194143"
     inkscape:cx="321.97867"
     inkscape:cy="276.54088"
     inkscape:window-x="-4"
     inkscape:window-y="-4"
     inkscape:window-maximized="1"
     inkscape:current-layer="layer2" />
  <g
     inkscape:groupmode="layer"
     id="layer2"
     inkscape:label="old image"
     style="display:inline">
    <path
       style="fill:#000080;display:inline;opacity:0.76"
       d="m 255.39268,226.46211 -3.75,-1.97969 10e-4,-9.72611 0.001,-9.72611 4.74898,-2.72536 c 2.61194,-1.49894 5.3552,-3.12752 6.09613,-3.61906 1.02627,-0.68083 0.13306,-2.02934 -3.75,-5.66148 -2.80343,-2.62228 -5.09714,-5.28562 -5.09714,-5.91854 0,-0.63291 2.23349,-3.35066 4.96332,-6.03943 l 4.96332,-4.88869 13.184,13.08642 13.184,13.08642 4.42386,-2.75348 4.42385,-2.75348 -5.2483,-4.71867 -5.2483,-4.71867 5.68001,-5.68001 5.68001,-5.68 12.24711,12.24712 12.24712,12.24711 0,6.90876 c 0,6.05128 -0.37311,7.44693 -3.00619,11.2449 -1.96329,2.83185 -4.91209,5.31453 -8.5,7.15639 -4.7224,2.42424 -6.4065,2.76907 -11.99381,2.4558 -8.81999,-0.49452 -12.40847,-2.33906 -12.81749,-6.5884 l -0.31749,-3.29843 -4.04295,3.65256 c -2.22362,2.00891 -5.5538,4.28383 -7.40039,5.05539 -5.01942,2.09724 -16.11526,1.74016 -20.67168,-0.66526 l 3e-5,0 z m 14.26096,-9.18191 c 1.08986,-1.7875 1.98325,-4.08199 1.9853,-5.09887 0.005,-2.40154 -2.96436,-8.65113 -4.1102,-8.65113 -0.48733,0 -0.88606,3.825 -0.88606,8.5 0,4.675 0.23161,8.5 0.5147,8.5 0.28308,0 1.4064,-1.4625 2.49626,-3.25 z m 36.66599,0.62029 c 0.94768,-1.44634 1.72305,-4.08797 1.72305,-5.87029 0,-3.33379 -2.68829,-8.5 -4.42305,-8.5 -0.55931,0 -0.97695,3.63371 -0.97695,8.5 0,8.97789 0.80191,10.25815 3.67695,5.87029 z"
       id="path2829"
       sodipodi:nodetypes="cccccssscccccccccccccssscccscccssssccsssc" />
    <flowRoot
       xml:space="preserve"
       id="flowRoot2836"
       style="font-size:64px;font-style:normal;font-variant:normal;font-weight:normal;font-stretch:normal;text-align:center;line-height:100%;writing-mode:lr-tb;text-anchor:middle;fill:#ff0000;fill-opacity:1;stroke:none;font-family:Arial Black;-inkscape-font-specification:Arial Black;opacity:0.70099991"
       transform="translate(2.8523729,7.6063284)"><flowRegion
         id="flowRegion2838"><rect
           id="rect2840"
           width="132.15994"
           height="56.096668"
           x="324.53665"
           y="175.85527"
           style="font-size:64px;font-style:normal;font-variant:normal;font-weight:normal;font-stretch:normal;text-align:center;line-height:100%;writing-mode:lr-tb;text-anchor:middle;font-family:Arial Black;-inkscape-font-specification:Arial Black;fill:#ff0000" /></flowRegion><flowPara
         id="flowPara2842">Pak</flowPara></flowRoot>  </g>
  <g
     inkscape:groupmode="layer"
     id="layer1"
     inkscape:label="new dd"
     style="display:none">
    <image
       style="display:inline"
       xlink:href="file:///F:/FisherScan/dd.bmp"
       width="720"
       height="450"
       id="image12"
       x="-54.512016"
       y="-20.600471" />
  </g>
</svg>
